# xmcd
#
# Track frame offsets:
#	150
#	21092
#	36458
#	53707
#	71989
#	86254
#	99005
#	120753
#	132101
#	140269
#	145030
#	172255
#	190004
#	196419
#	220561
#	229325
#	240589
#	250523
#	274763
#
# Disc length: 3780 seconds
#
# Revision: 1
# Processed by: cddbd v1.5.2PL0 Copyright (c) Steve Scherf et al.
# Submitted via: audiograbber 1.83.01
#
DISCID=000ec213
DTITLE=Devendra Banhart - Cripple Crow
DYEAR=2005
DGENRE=Lo-Fi
TTITLE0=Now that I Know
TTITLE1=Santa Maria de Feira
TTITLE2=Heard Somebody Say
TTITLE3=Long Haired Child
TTITLE4=Lazy Butterfly
TTITLE5=Quedate Luna
TTITLE6=Queen Bee
TTITLE7=I Feel Just Like A Child
TTITLE8=Some People Ride The Waves
TTITLE9=The Beatles
TTITLE10=Dragonflys
TTITLE11=Cripple Crow
TTITLE12=Inaniel
TTITLE13=Hey Mama Wolf
TTITLE14=How`s About Telling A Story
TTITLE15=Chinese Children
TTITLE16=Sawkill River
TTITLE17=I Love That Man
TTITLE18=Luna De Margarita
EXTD=
EXTT0=
EXTT1=
EXTT2=
EXTT3=
EXTT4=
EXTT5=
EXTT6=
EXTT7=
EXTT8=
EXTT9=
EXTT10=
EXTT11=
EXTT12=
EXTT13=
EXTT14=
EXTT15=
EXTT16=
EXTT17=
EXTT18=
PLAYORDER=
